# xmcd
#
# Track frame offsets:
#	150
#	5759
#	20511
#	30692
#	39755
#	50973
#	59997
#	74534
#	88365
#	98182
#	107025
#	121865
#	136442
#	151321
#	162004
#	186912
#	197899
#	209655
#	219321
#	236062
#
# Disc length: 3277 seconds
#
# Revision: 6
# Processed by: cddbd v1.5.2PL0 Copyright (c) Steve Scherf et al.
# Submitted via: audiograbber 1.83.01
#
DISCID=2f0ccb14
DTITLE=Various Artist - Country Greats  [CD09)
DYEAR=1999
DGENRE=Oldies
TTITLE0=Bob Wills - Billy In The Low Ground
TTITLE1=Connie Smith - Did We Have You Come This Far To Say
TTITLE2=Conway Twitty - Let Me Be The Judge
TTITLE3=Don Williams and Emmylou Harris - In My Life
TTITLE4=Kitty Wells - Mommy For A Day
TTITLE5=Mel Tillis - Send Me Down To Tucson
TTITLE6=Nitty Gritty Dirt Band - Home Again In My Heart
TTITLE7=Porter Wagoner - Nothing Between
TTITLE8=Ralph Stanley - Leaning On Jesus
TTITLE9=T.G. Sheppard - I'll Come Back For More
TTITLE10=Tammy Wynette - Crying In The Rain
TTITLE11=Terri Gibbs - Free And Easy
TTITLE12=Tina Turner - Good Hearted Woman
TTITLE13=Freddy Fender - Wild Side Of Life
TTITLE14=Dottie West - An American Trilogy
TTITLE15=Gene Watson - Farewell Party
TTITLE16=George Jones - I Can't Change Overnight
TTITLE17=Glen Yarborough - Suspiros Del Chan Chamayo
TTITLE18=Johnny Lee - Your Song
TTITLE19=Willie nelson - I Didn't Sleep A Wink
EXTD=
EXTT0=
EXTT1=
EXTT2=
EXTT3=
EXTT4=
EXTT5=
EXTT6=
EXTT7=
EXTT8=
EXTT9=
EXTT10=
EXTT11=
EXTT12=
EXTT13=
EXTT14=
EXTT15=
EXTT16=
EXTT17=
EXTT18=
EXTT19=
PLAYORDER=
